<?xml version="1.0" encoding="UTF-8"?>
<svg version="1.1" xmlns="http://www.w3.org/2000/svg" width="140" height="140">
<path d="M0 0 C4.80300862 1.97176143 9.76048938 1.39463507 14.85546875 1.125 C18.78203837 1.35017962 21.33259914 2.52009914 24.125 5.3125 C24.98674349 11.098492 23.41809265 14.64867794 20.27734375 19.50390625 C12.7719372 29.29771262 3.3233403 37.43958323 -6.875 44.3125 C-7.54208984 44.76447754 -8.20917969 45.21645508 -8.89648438 45.68212891 C-29.7828267 59.68270976 -61.43721558 80.15714941 -87.95703125 75.90625 C-91.43799654 74.82863957 -92.93953898 73.34472227 -94.875 70.3125 C-95.48363478 63.25233651 -92.10506237 59.37039933 -87.78515625 54.0234375 C-84.67545289 49.61007527 -83.74353756 44.89300171 -82.625 39.6875 C-78.78644206 24.44616702 -69.31103181 11.6128585 -55.875 3.3125 C-38.93193155 -6.54836584 -17.9853539 -7.93471496 0 0 Z M-64.875 21.3125 C-72.0661299 31.00892677 -76.05224366 41.73982968 -76.0625 53.75 C-76.07474609 54.50087891 -76.08699219 55.25175781 -76.09960938 56.02539062 C-76.1107534 60.24897648 -75.8149833 63.45553716 -73.875 67.3125 C-70.905 66.8175 -70.905 66.8175 -67.875 66.3125 C-67.38 63.3425 -67.38 63.3425 -66.875 60.3125 C-67.865 60.8075 -67.865 60.8075 -68.875 61.3125 C-68.9628954 57.95850151 -69.01568879 54.6048036 -69.0625 51.25 C-69.10020508 49.83557617 -69.10020508 49.83557617 -69.13867188 48.39257812 C-69.20043799 42.48361943 -68.58312118 38.5648125 -65.875 33.3125 C-65.54371094 32.43207031 -65.21242188 31.55164063 -64.87109375 30.64453125 C-60.82123332 21.1630933 -52.11465599 14.17959292 -42.93359375 9.9609375 C-31.24461429 5.53979969 -31.24461429 5.53979969 -26 7.25 C-25.29875 7.600625 -24.5975 7.95125 -23.875 8.3125 C-24.535 9.3025 -25.195 10.2925 -25.875 11.3125 C-22.96752161 12.27169059 -22.96752161 12.27169059 -20.05859375 11.61328125 C-17.875 11.3125 -17.875 11.3125 -15.33203125 12.7890625 C-14.02298828 13.85253906 -14.02298828 13.85253906 -12.6875 14.9375 C-11.36685547 15.97777344 -11.36685547 15.97777344 -10.01953125 17.0390625 C-7.62671793 19.57570613 -7.35378917 20.9438762 -6.875 24.3125 C-4.90741727 25.67270151 -4.90741727 25.67270151 -2.875 26.3125 C-3.37 23.3425 -3.37 23.3425 -3.875 20.3125 C-2.16659719 21.94662443 -0.94046953 23.18156094 0.125 25.3125 C0.785 25.3125 1.445 25.3125 2.125 25.3125 C2.62 26.3025 2.62 26.3025 3.125 27.3125 C5.765 24.6725 8.405 22.0325 11.125 19.3125 C7.31861321 11.69972641 -0.12791207 8.30408158 -7.875 5.375 C-28.7877785 -1.49449497 -50.1561711 5.30027665 -64.875 21.3125 Z M6.125 3.3125 C9.14772532 6.56774265 12.38218301 8.93070737 16.125 11.3125 C15.55047254 7.38174356 15.55047254 7.38174356 13.125 4.3125 C10.80224823 3.91202556 8.46760643 3.5727896 6.125 3.3125 Z M-14.875 18.3125 C-14.875 19.6325 -14.875 20.9525 -14.875 22.3125 C-14.215 21.9825 -13.555 21.6525 -12.875 21.3125 C-13.535 20.3225 -14.195 19.3325 -14.875 18.3125 Z M-12.875 22.3125 C-11.875 24.3125 -11.875 24.3125 -11.875 24.3125 Z M-41.875 35.3125 C-42.205 35.9725 -42.535 36.6325 -42.875 37.3125 C-44.0196875 37.5290625 -44.0196875 37.5290625 -45.1875 37.75 C-48.1623281 38.37263844 -49.66005483 39.26162484 -51.875 41.3125 C-51.875 41.9725 -51.875 42.6325 -51.875 43.3125 C-46.925 43.3125 -41.975 43.3125 -36.875 43.3125 C-37.52144661 38.43035113 -37.52144661 38.43035113 -39.875 35.3125 C-40.535 35.3125 -41.195 35.3125 -41.875 35.3125 Z M-18.875 34.3125 C-18.875 34.9725 -18.875 35.6325 -18.875 36.3125 C-19.865 35.9825 -20.855 35.6525 -21.875 35.3125 C-22.535 36.6325 -23.195 37.9525 -23.875 39.3125 C-21.235 38.9825 -18.595 38.6525 -15.875 38.3125 C-16.205 36.9925 -16.535 35.6725 -16.875 34.3125 C-17.535 34.3125 -18.195 34.3125 -18.875 34.3125 Z M-32.875 44.3125 C-33.205 46.6225 -33.535 48.9325 -33.875 51.3125 C-37.505 51.6425 -41.135 51.9725 -44.875 52.3125 C-44.545 53.9625 -44.215 55.6125 -43.875 57.3125 C-38.9026578 55.82079734 -34.45654261 53.70792583 -29.875 51.3125 C-29.875 49.3325 -29.875 47.3525 -29.875 45.3125 C-30.865 44.9825 -31.855 44.6525 -32.875 44.3125 Z M-84.875 53.3125 C-88.12400602 58.28754047 -89.37440808 61.19475104 -88.875 67.3125 C-85.905 67.8075 -85.905 67.8075 -82.875 68.3125 C-83.205 63.3625 -83.535 58.4125 -83.875 53.3125 C-84.205 53.3125 -84.535 53.3125 -84.875 53.3125 Z M-61.875 53.3125 C-65.18668629 57.4034066 -66.37630606 60.04878638 -65.875 65.3125 C-60.5663151 64.73075155 -60.5663151 64.73075155 -55.875 62.3125 C-57.07399698 59.2293649 -58.35200477 56.24970508 -59.875 53.3125 C-60.535 53.3125 -61.195 53.3125 -61.875 53.3125 Z " fill="#00A2FE" transform="translate(98.875,10.6875)"/>
<path d="M0 0 C3.47965705 3.36741005 5.14910851 5.18655393 5.3125 10.0625 C5.29784721 14.62684518 4.01379685 17.73332674 1.77734375 21.6640625 C0.6689029 24.9949551 1.4224542 27.55244133 2 31 C3.23047048 50.097249 0.12060078 66.01006813 -12.8125 80.875 C-24.89411606 93.39330098 -39.85164658 99.57408874 -57.1875 100.375 C-71.26431306 100.03362222 -85.95444248 94.99162696 -96.1875 85.1875 C-99.77042914 81.78560307 -102.72151869 81.19546646 -107.52734375 80.51953125 C-111.52654138 79.6792575 -114.93917144 77.69320946 -118 75 C-118.33 74.01 -118.66 73.02 -119 72 C-118.31164062 72.15726562 -117.62328125 72.31453125 -116.9140625 72.4765625 C-88.88424227 77.51140956 -57.63594618 60.6417167 -35.33056641 45.19677734 C-14.18582117 30.19041125 -14.18582117 30.19041125 0 9 C0.50659831 5.73934906 0.38604339 3.30894337 0 0 Z M-8.41015625 33.1796875 C-11.90425797 36.7400641 -11.90425797 36.7400641 -13.25390625 41.41015625 C-13.1675233 43.10378567 -13.06447849 44.79664237 -12.9453125 46.48828125 C-13.03632575 50.66838998 -14.89709889 53.45135437 -17 57 C-18.216875 56.938125 -19.43375 56.87625 -20.6875 56.8125 C-24.61972606 56.84033877 -26.99733724 57.26227807 -30 60 C-31.19351312 63.34329469 -31.19351312 63.34329469 -32 67 C-32.53625 68.03125 -33.0725 69.0625 -33.625 70.125 C-35.20801578 72.82864251 -35.20801578 72.82864251 -34.8359375 75.37890625 C-35.06147613 78.98215434 -36.54035345 80.23755751 -39 82.8125 C-39.7425 83.60269531 -40.485 84.39289063 -41.25 85.20703125 C-41.8275 85.79871094 -42.405 86.39039063 -43 87 C-49.75 85.25 -49.75 85.25 -52 83 C-52.625 80.875 -52.625 80.875 -53 79 C-54.32 78.67 -55.64 78.34 -57 78 C-56.67 75.03 -56.34 72.06 -56 69 C-58.00064637 67.71532761 -58.00064637 67.71532761 -60.30322266 68.6809082 C-61.2472998 69.05046631 -62.19137695 69.42002441 -63.1640625 69.80078125 C-64.20433594 70.20103516 -65.24460937 70.60128906 -66.31640625 71.01367188 C-67.40824219 71.44228516 -68.50007813 71.87089844 -69.625 72.3125 C-76.36321774 74.94194926 -82.92507232 77.44968292 -90 79 C-80.94646496 88.63629132 -68.37511777 91.68442707 -55.5 92.4375 C-44.09196204 91.9209096 -34.04890441 87.75199341 -25 81 C-23.39125 79.8553125 -23.39125 79.8553125 -21.75 78.6875 C-14.30218771 71.40895618 -6.4703001 59.63632814 -5.88647461 48.9152832 C-5.89171143 48.13499756 -5.89694824 47.35471191 -5.90234375 46.55078125 C-5.90556641 45.70322266 -5.90878906 44.85566406 -5.91210938 43.98242188 C-5.92048828 43.10134766 -5.92886719 42.22027344 -5.9375 41.3125 C-5.94201172 40.41982422 -5.94652344 39.52714844 -5.95117188 38.60742188 C-5.96295017 36.40488013 -5.97939836 34.20247401 -6 32 C-7.17858868 31.89305898 -7.17858868 31.89305898 -8.41015625 33.1796875 Z " fill="#8CC53E" transform="translate(131,24)"/>
<path d="M0 0 C2.4375 1.125 2.4375 1.125 5 3 C5.8125 6.1875 5.8125 6.1875 6 9 C4.1875 8.8125 4.1875 8.8125 2 8 C0.1875 5.625 0.1875 5.625 -1 3 C-0.67 2.01 -0.34 1.02 0 0 Z " fill="#8CC53E" transform="translate(67,98)"/>
<path d="M0 0 C1.32 0.66 2.64 1.32 4 2 C4 2.66 4 3.32 4 4 C1.525 3.01 1.525 3.01 -1 2 C-0.67 1.34 -0.34 0.68 0 0 Z " fill="#00A3FD" transform="translate(91,22)"/>
</svg>
